<svg width="112" height="109" viewBox="0 0 112 109" fill="none" xmlns="http://www.w3.org/2000/svg">
<path d="M47.0471 2.41868C52.5474 0.316577 58.637 0.316577 64.1374 2.41868L103.507 17.4601C105.751 18.3188 107.681 19.8331 109.042 21.8033C110.404 23.7735 111.132 26.1072 111.132 28.4969V80.7321C111.132 83.1218 110.404 85.4555 109.042 87.4257C107.681 89.3959 105.751 90.9101 103.507 91.7688L64.1374 106.818C58.637 108.92 52.5474 108.92 47.0471 106.818L7.68545 91.7688C5.43949 90.9114 3.50784 89.3977 2.14523 87.4274C0.782623 85.4571 0.0530529 83.1227 0.0527344 80.7321V28.4969C0.0530529 26.1062 0.782623 23.7719 2.14523 21.8016C3.50784 19.8313 5.43949 18.3176 7.68545 17.4601L47.0471 2.41868ZM61.289 9.77386C57.6221 8.37246 53.5623 8.37246 49.8954 9.77386L38.9145 13.9757L83.2667 30.6569L98.7226 24.0822L61.289 9.77386ZM103.197 30.7436L59.5593 49.3405V100.015C60.1412 99.8677 60.7177 99.6837 61.289 99.463L100.659 84.4215C101.407 84.1347 102.05 83.6294 102.503 82.9721C102.956 82.3149 103.198 81.5367 103.197 80.74V30.7436ZM51.6251 100.007V49.3405L7.98695 30.7515V80.7321C7.98611 81.5288 8.22827 82.3071 8.68151 82.9643C9.13476 83.6215 9.77781 84.1268 10.5259 84.4136L49.8954 99.4551C50.4614 99.6758 51.038 99.8598 51.6251 100.007ZM12.4618 24.0822L55.5922 42.4504L72.7618 35.1347L27.7987 18.217L12.4618 24.0822Z" fill="white"/>
</svg>
