<svg width="45" height="45" viewBox="0 0 45 45" fill="none" xmlns="http://www.w3.org/2000/svg">
<path d="M29.1317 33.0675L17.1992 45L5.26673 33.0675C2.90674 30.7075 1.29957 27.7006 0.64846 24.4272C-0.00264925 21.1538 0.331544 17.7608 1.60878 14.6773C2.88601 11.5938 5.04893 8.95831 7.824 7.10407C10.5991 5.24983 13.8617 4.26013 17.1992 4.26013C20.5368 4.26013 23.7994 5.24983 26.5745 7.10407C29.3495 8.95831 31.5124 11.5938 32.7897 14.6773C34.0669 17.7608 34.4011 21.1538 33.75 24.4272C33.0989 27.7006 31.4917 30.7075 29.1317 33.0675Z" fill="#3855B1"/>
<path d="M19.3212 26.7188H16.3038C16.1515 26.7187 16.0047 26.6624 15.8913 26.5608C15.7779 26.4592 15.7059 26.3194 15.6892 26.1681L14.7951 18.1243C14.7855 18.0379 14.7943 17.9504 14.8208 17.8676C14.8473 17.7847 14.891 17.7084 14.949 17.6436C15.007 17.5788 15.078 17.527 15.1574 17.4915C15.2368 17.4559 15.3227 17.4376 15.4097 17.4375H20.2153C20.3023 17.4376 20.3883 17.4559 20.4677 17.4915C20.547 17.527 20.618 17.5788 20.676 17.6436C20.734 17.7084 20.7777 17.7847 20.8042 17.8676C20.8308 17.9504 20.8395 18.0379 20.8299 18.1243L19.9359 26.1681C19.9191 26.3194 19.8472 26.4592 19.7338 26.5608C19.6204 26.6624 19.4735 26.7187 19.3212 26.7188Z" stroke="white" stroke-width="1.5" stroke-linecap="round"/>
<path d="M10.0781 16.4062C10.7619 16.4062 11.4176 16.1346 11.9011 15.6511C12.3846 15.1676 12.6562 14.5119 12.6562 13.8281C12.6562 13.1444 12.3846 12.4886 11.9011 12.0051C11.4176 11.5216 10.7619 11.25 10.0781 11.25C9.39436 11.25 8.73861 11.5216 8.25512 12.0051C7.77162 12.4886 7.5 13.1444 7.5 13.8281C7.5 14.5119 7.77162 15.1676 8.25512 15.6511C8.73861 16.1346 9.39436 16.4062 10.0781 16.4062Z" stroke="white" stroke-width="1.5" stroke-miterlimit="1.5" stroke-linecap="round" stroke-linejoin="round"/>
<path d="M10.0781 13.8281L14.7188 17.4375M10.0781 29.2969L15.2344 25.1719M25.5469 13.8281L20.9062 17.4375M20.3906 25.1719L21.6797 26.2031" stroke="white" stroke-width="1.5" stroke-linecap="round" stroke-linejoin="round"/>
<path d="M10.0781 31.875C10.7619 31.875 11.4176 31.6034 11.9011 31.1199C12.3846 30.6364 12.6562 29.9806 12.6562 29.2969C12.6562 28.6131 12.3846 27.9574 11.9011 27.4739C11.4176 26.9904 10.7619 26.7188 10.0781 26.7188C9.39436 26.7188 8.73861 26.9904 8.25512 27.4739C7.77162 27.9574 7.5 28.6131 7.5 29.2969C7.5 29.9806 7.77162 30.6364 8.25512 31.1199C8.73861 31.6034 9.39436 31.875 10.0781 31.875ZM25.5469 16.4062C26.2306 16.4062 26.8864 16.1346 27.3699 15.6511C27.8534 15.1676 28.125 14.5119 28.125 13.8281C28.125 13.1444 27.8534 12.4886 27.3699 12.0051C26.8864 11.5216 26.2306 11.25 25.5469 11.25C24.8631 11.25 24.2074 11.5216 23.7239 12.0051C23.2404 12.4886 22.9688 13.1444 22.9688 13.8281C22.9688 14.5119 23.2404 15.1676 23.7239 15.6511C24.2074 16.1346 24.8631 16.4062 25.5469 16.4062Z" stroke="white" stroke-width="1.5" stroke-miterlimit="1.5" stroke-linecap="round" stroke-linejoin="round"/>
<path d="M25.5469 25.6875V31.875M25.5469 31.875L22.9688 29.2969M25.5469 31.875L28.125 29.2969" stroke="white" stroke-width="1.5" stroke-linecap="round" stroke-linejoin="round"/>
</svg>
