<svg width="48" height="48" viewBox="0 0 48 48" fill="none" xmlns="http://www.w3.org/2000/svg">
<g clip-path="url(#clip0_19_101)">
<path d="M31.0738 35.272L18.3458 48L5.61783 35.272C3.10051 32.7547 1.3862 29.5474 0.691682 26.0557C-0.00283399 22.5641 0.353639 18.9449 1.71602 15.6558C3.07841 12.3668 5.38551 9.55558 8.34559 7.57772C11.3057 5.59987 14.7858 4.54419 18.3458 4.54419C21.9059 4.54419 25.386 5.59987 28.3461 7.57772C31.3062 9.55558 33.6133 12.3668 34.9756 15.6558C36.338 18.9449 36.6945 22.5641 36 26.0557C35.3055 29.5474 33.5912 32.7547 31.0738 35.272Z" fill="#3855B1"/>
<path d="M20.6094 28.5H17.3908C17.2284 28.4999 17.0717 28.4399 16.9507 28.3315C16.8298 28.2232 16.753 28.074 16.7352 27.9126L15.7815 19.3326C15.7713 19.2404 15.7806 19.1471 15.8089 19.0587C15.8372 18.9704 15.8838 18.889 15.9456 18.8198C16.0075 18.7507 16.0832 18.6954 16.1679 18.6575C16.2526 18.6196 16.3443 18.6 16.4371 18.6H21.5631C21.6558 18.6 21.7475 18.6196 21.8322 18.6575C21.9169 18.6954 21.9926 18.7507 22.0545 18.8198C22.1164 18.889 22.163 18.9704 22.1912 19.0587C22.2195 19.1471 22.2289 19.2404 22.2187 19.3326L21.265 27.9126C21.2471 28.074 21.1704 28.2232 21.0494 28.3315C20.9284 28.4399 20.7718 28.4999 20.6094 28.5Z" stroke="white" stroke-width="1.5" stroke-linecap="round"/>
<path d="M10.75 17.5C11.4793 17.5 12.1788 17.2103 12.6945 16.6945C13.2103 16.1788 13.5 15.4793 13.5 14.75C13.5 14.0207 13.2103 13.3212 12.6945 12.8055C12.1788 12.2897 11.4793 12 10.75 12C10.0207 12 9.32118 12.2897 8.80546 12.8055C8.28973 13.3212 8 14.0207 8 14.75C8 15.4793 8.28973 16.1788 8.80546 16.6945C9.32118 17.2103 10.0207 17.5 10.75 17.5Z" stroke="white" stroke-width="1.5" stroke-miterlimit="1.5" stroke-linecap="round" stroke-linejoin="round"/>
<path d="M10.75 14.75L15.7 18.6M10.75 31.25L16.25 26.85M27.25 14.75L22.3 18.6M21.75 26.85L23.125 27.95" stroke="white" stroke-width="1.5" stroke-linecap="round" stroke-linejoin="round"/>
<path d="M10.75 34C11.4793 34 12.1788 33.7103 12.6945 33.1945C13.2103 32.6788 13.5 31.9793 13.5 31.25C13.5 30.5207 13.2103 29.8212 12.6945 29.3055C12.1788 28.7897 11.4793 28.5 10.75 28.5C10.0207 28.5 9.32118 28.7897 8.80546 29.3055C8.28973 29.8212 8 30.5207 8 31.25C8 31.9793 8.28973 32.6788 8.80546 33.1945C9.32118 33.7103 10.0207 34 10.75 34ZM27.25 17.5C27.9793 17.5 28.6788 17.2103 29.1945 16.6945C29.7103 16.1788 30 15.4793 30 14.75C30 14.0207 29.7103 13.3212 29.1945 12.8055C28.6788 12.2897 27.9793 12 27.25 12C26.5207 12 25.8212 12.2897 25.3055 12.8055C24.7897 13.3212 24.5 14.0207 24.5 14.75C24.5 15.4793 24.7897 16.1788 25.3055 16.6945C25.8212 17.2103 26.5207 17.5 27.25 17.5Z" stroke="white" stroke-width="1.5" stroke-miterlimit="1.5" stroke-linecap="round" stroke-linejoin="round"/>
<path d="M27.25 34V27.4M27.25 27.4L24.5 30.15M27.25 27.4L30 30.15" stroke="white" stroke-width="1.5" stroke-linecap="round" stroke-linejoin="round"/>
</g>
<defs>
<clipPath id="clip0_19_101">
<rect width="48" height="48" fill="white"/>
</clipPath>
</defs>
</svg>
